<svg xmlns="http://www.w3.org/2000/svg" enable-background="new 0 0 100 100" viewBox="0 0 100 100"><path d="M62.82 56.83c0-3.45-1.34-6.69-3.78-9.12-2.44-2.44-5.68-3.78-9.12-3.78-3.45 0-6.69 1.34-9.12 3.78-5.03 5.03-5.03 13.22 0 18.25 2.44 2.44 5.68 3.78 9.12 3.78 3.45 0 6.69-1.34 9.12-3.78C61.47 63.52 62.82 60.28 62.82 56.83zM42.91 63.84c-3.86-3.86-3.86-10.14 0-14 1.93-1.93 4.47-2.9 7-2.9 2.54 0 5.07.96 7 2.9 3.86 3.86 3.86 10.14 0 14C53.06 67.7 46.77 67.7 42.91 63.84zM74.7 53.43c.83 0 1.5-.67 1.5-1.5V22.51c0-.83-.67-1.5-1.5-1.5s-1.5.67-1.5 1.5v29.41C73.2 52.76 73.87 53.43 74.7 53.43zM68.52 46.07c.83 0 1.5-.67 1.5-1.5l0-14.71c0-.83-.67-1.5-1.5-1.5s-1.5.67-1.5 1.5l0 14.71C67.02 45.4 67.7 46.07 68.52 46.07zM32.98 44.57V29.87c0-.83-.67-1.5-1.5-1.5s-1.5.67-1.5 1.5v14.71c0 .83.67 1.5 1.5 1.5S32.98 45.4 32.98 44.57zM25.3 21.01c-.83 0-1.5.67-1.5 1.5v29.41c0 .83.67 1.5 1.5 1.5s1.5-.67 1.5-1.5V22.51C26.8 21.68 26.13 21.01 25.3 21.01zM80.43 26.76c.83 0 1.5-.67 1.5-1.5v-2.74c0-.83-.67-1.5-1.5-1.5s-1.5.67-1.5 1.5v2.74C78.93 26.09 79.61 26.76 80.43 26.76zM19.57 47.68c-.83 0-1.5.67-1.5 1.5v2.74c0 .83.67 1.5 1.5 1.5s1.5-.67 1.5-1.5v-2.74C21.07 48.35 20.39 47.68 19.57 47.68zM80.43 53.43c.83 0 1.5-.67 1.5-1.5v-2.74c0-.83-.67-1.5-1.5-1.5s-1.5.67-1.5 1.5v2.74C78.93 52.76 79.61 53.43 80.43 53.43z"/><path d="M14.32,58.77h17.92c0.43,4.02,2.2,7.76,5.09,10.65c3.42,3.43,8,5.19,12.61,5.19c3.28,0,6.57-0.9,9.46-2.72L71,83.49
	c0.56,0.56,1.29,0.84,2.03,0.84c0.74,0,1.49-0.28,2.07-0.85l2.08-2.09c1.13-1.14,1.14-2.97,0.02-4.1L65.43,65.52
	c1.17-2.08,1.9-4.38,2.16-6.75h18.09c0.83,0,1.5-0.67,1.5-1.5v-40.1c0-0.83-0.67-1.5-1.5-1.5H14.32c-0.83,0-1.5,0.67-1.5,1.5v40.1
	C12.82,58.1,13.49,58.77,14.32,58.77z M39.45,67.3c-2.69-2.69-4.23-6.27-4.32-10.07c-0.1-3.73,1.19-7.32,3.66-10.13
	c0.21-0.25,0.44-0.49,0.67-0.72c1.58-1.58,3.52-2.8,5.62-3.52c0.39-0.13,0.78-0.25,1.18-0.35c0.69-0.18,1.4-0.29,2.11-0.37
	c0.11-0.01,0.22-0.03,0.32-0.04c0.21-0.02,0.41-0.02,0.62-0.03c0.23-0.01,0.45-0.03,0.68-0.02c2.2,0.01,4.32,0.49,6.3,1.45
	c1.5,0.71,2.88,1.68,4.08,2.89c0.29,0.29,0.56,0.59,0.83,0.91c2.36,2.77,3.6,6.3,3.49,9.95c0,0,0,0,0,0
	c-0.08,2.75-0.91,5.41-2.42,7.71c-0.55,0.85-1.19,1.64-1.9,2.35c-0.52,0.52-1.09,1.01-1.69,1.45c0,0,0,0,0,0
	C52.85,73.06,44.58,72.44,39.45,67.3z M75.06,79.27l1.06,1.06L75.06,79.27C75.06,79.27,75.06,79.27,75.06,79.27z M73.04,81.29
	L61.81,70.06c0.23-0.21,0.46-0.43,0.69-0.65c0.43-0.43,0.84-0.88,1.22-1.36L75,79.33L73.04,81.29z M15.82,18.67h68.36v37.1h-16.5
	c0-0.02,0-0.04-0.01-0.06c-0.01-0.11-0.02-0.22-0.03-0.34c-0.03-0.4-0.07-0.8-0.13-1.19c-0.03-0.18-0.06-0.35-0.09-0.53
	c-0.06-0.33-0.12-0.66-0.2-0.98c-0.05-0.19-0.1-0.38-0.15-0.57c-0.08-0.3-0.17-0.61-0.27-0.9c-0.06-0.19-0.13-0.38-0.2-0.57
	c-0.11-0.29-0.23-0.58-0.35-0.87c-0.08-0.18-0.16-0.37-0.25-0.55c-0.14-0.29-0.29-0.57-0.44-0.86c-0.09-0.17-0.18-0.34-0.27-0.5
	c-0.18-0.3-0.37-0.6-0.57-0.89c-0.09-0.13-0.17-0.27-0.26-0.4c-0.19-0.27-0.4-0.53-0.6-0.78V22.51c0-0.83-0.67-1.5-1.5-1.5
	s-1.5,0.67-1.5,1.5v20.3c-0.76-0.6-1.57-1.12-2.41-1.58V29.87c0-0.83-0.67-1.5-1.5-1.5s-1.5,0.67-1.5,1.5v10.06
	c-1.28-0.42-2.6-0.68-3.94-0.8V22.51c0-0.83-0.67-1.5-1.5-1.5s-1.5,0.67-1.5,1.5V39.1c-0.81,0.07-1.62,0.2-2.41,0.37v-9.6
	c0-0.83-0.67-1.5-1.5-1.5s-1.5,0.67-1.5,1.5v10.56c-1.4,0.58-2.73,1.34-3.94,2.26V22.51c0-0.83-0.67-1.5-1.5-1.5s-1.5,0.67-1.5,1.5
	v23.08c-0.21,0.26-0.42,0.51-0.61,0.78c-0.1,0.14-0.2,0.29-0.29,0.43c-0.2,0.29-0.39,0.58-0.57,0.88c-0.11,0.18-0.2,0.36-0.3,0.54
	c-0.15,0.28-0.3,0.55-0.44,0.83c-0.1,0.2-0.18,0.39-0.27,0.59c-0.12,0.28-0.24,0.56-0.35,0.84c-0.08,0.21-0.16,0.42-0.23,0.63
	c-0.1,0.29-0.18,0.57-0.27,0.87c-0.06,0.21-0.12,0.42-0.17,0.64c-0.07,0.3-0.13,0.61-0.19,0.91c-0.04,0.21-0.08,0.41-0.11,0.62
	c-0.05,0.34-0.08,0.69-0.12,1.03c-0.02,0.18-0.04,0.35-0.05,0.53c0,0.02,0,0.04-0.01,0.06H15.82V18.67z"/><path d="M19.57,21.01c-0.83,0-1.5,0.67-1.5,1.5v2.74c0,0.83,0.67,1.5,1.5,1.5s1.5-0.67,1.5-1.5v-2.74
	C21.07,21.68,20.39,21.01,19.57,21.01z"/></svg>