<svg xmlns="http://www.w3.org/2000/svg" enable-background="new 0 0 100 100" viewBox="0 0 100 100" id="6211600">
  <path d="M12.82,78.39c0,4.84,3.94,8.79,8.79,8.79h56.78c4.84,0,8.79-3.94,8.79-8.79s-3.94-8.79-8.79-8.79h-2.96V23.24
	c0-0.83-0.67-1.5-1.5-1.5H54.49h-8.98H26.07c-0.83,0-1.5,0.67-1.5,1.5v46.36h-2.96C16.77,69.61,12.82,73.55,12.82,78.39z
	 M52.99,24.74v4.86h-5.98v-4.86H52.99z M27.57,24.74h16.44v6.36c0,0.83,0.67,1.5,1.5,1.5h8.98c0.83,0,1.5-0.67,1.5-1.5v-6.36h16.44
	v44.86H55.99v-6.36c0-0.83-0.67-1.5-1.5-1.5h-8.98c-0.83,0-1.5,0.67-1.5,1.5v6.36H27.57V24.74z M52.99,69.61h-5.98v-4.86h5.98V69.61
	z M21.61,72.61h4.46h19.44h8.98h19.44h4.46c3.19,0,5.79,2.6,5.79,5.79s-2.6,5.79-5.79,5.79H21.61c-3.19,0-5.79-2.6-5.79-5.79
	S18.42,72.61,21.61,72.61z" fill="#ff4407" class="color000000 svgShape"></path>
  <path d="M29.11 83.1c2.6 0 4.71-2.11 4.71-4.71s-2.11-4.71-4.71-4.71c-2.6 0-4.71 2.11-4.71 4.71S26.51 83.1 29.11 83.1zM29.11 76.68c.94 0 1.71.77 1.71 1.71s-.77 1.71-1.71 1.71c-.95 0-1.71-.77-1.71-1.71S28.16 76.68 29.11 76.68zM43.04 83.1c2.6 0 4.71-2.11 4.71-4.71s-2.11-4.71-4.71-4.71c-2.6 0-4.71 2.11-4.71 4.71S40.44 83.1 43.04 83.1zM43.04 76.68c.95 0 1.71.77 1.71 1.71s-.77 1.71-1.71 1.71c-.94 0-1.71-.77-1.71-1.71S42.09 76.68 43.04 76.68zM56.96 83.1c2.6 0 4.71-2.11 4.71-4.71s-2.11-4.71-4.71-4.71c-2.6 0-4.71 2.11-4.71 4.71S54.36 83.1 56.96 83.1zM56.96 76.68c.94 0 1.71.77 1.71 1.71s-.77 1.71-1.71 1.71c-.95 0-1.71-.77-1.71-1.71S56.02 76.68 56.96 76.68zM70.89 83.1c2.6 0 4.71-2.11 4.71-4.71s-2.11-4.71-4.71-4.71c-2.6 0-4.71 2.11-4.71 4.71S68.29 83.1 70.89 83.1zM70.89 76.68c.95 0 1.71.77 1.71 1.71s-.77 1.71-1.71 1.71c-.94 0-1.71-.77-1.71-1.71S69.95 76.68 70.89 76.68zM59.97 54.03c.83 0 1.5-.67 1.5-1.5v-9.83c0-.83-.67-1.5-1.5-1.5H40.03c-.83 0-1.5.67-1.5 1.5v9.83c0 .83.67 1.5 1.5 1.5H59.97zM41.53 44.21h16.93v6.83H41.53V44.21zM58.07 61c0 .83.67 1.5 1.5 1.5h9.54c.83 0 1.5-.67 1.5-1.5s-.67-1.5-1.5-1.5h-9.54C58.74 59.5 58.07 60.17 58.07 61zM69.12 63.99h-9.54c-.83 0-1.5.67-1.5 1.5s.67 1.5 1.5 1.5h9.54c.83 0 1.5-.67 1.5-1.5S69.94 63.99 69.12 63.99zM41.93 32.86c0-.83-.67-1.5-1.5-1.5h-9.54c-.83 0-1.5.67-1.5 1.5s.67 1.5 1.5 1.5h9.54C41.26 34.36 41.93 33.69 41.93 32.86zM30.88 30.36h9.54c.83 0 1.5-.67 1.5-1.5s-.67-1.5-1.5-1.5h-9.54c-.83 0-1.5.67-1.5 1.5S30.06 30.36 30.88 30.36z" fill="#ff4407" class="color000000 svgShape"></path>
</svg>
