<svg xmlns="http://www.w3.org/2000/svg" enable-background="new 0 0 100 100" viewBox="0 0 100 100"><path d="M12.82,49.99c0,1.63,0.11,3.28,0.33,4.92c0,0.02,0.01,0.05,0.01,0.07c0,0,0,0,0,0.01c1.3,9.73,6.31,18.41,14.11,24.43
	c6.56,5.07,14.42,7.76,22.73,7.76c4.49,0,8.88-0.8,13.06-2.37c0.06-0.02,0.11-0.04,0.16-0.06c14.33-5.45,23.95-19.4,23.95-34.75
	c0-10.35-4.36-20.31-11.96-27.31c-6.89-6.36-15.84-9.86-25.2-9.86c-6.8,0-13.45,1.85-19.22,5.35c-8.28,4.99-14.21,12.87-16.69,22.17
	c0,0.02-0.01,0.04-0.01,0.05c0,0.01,0,0.02-0.01,0.03C13.25,43.54,12.82,46.75,12.82,49.99z M17.1,43.68
	c1.02,0.72,1.55,1.95,1.39,3.19l-0.32,2.35c-0.13,0.97-0.67,1.83-1.49,2.36L15.9,52.1c-0.04-0.7-0.07-1.41-0.07-2.11
	c0-2.27,0.23-4.53,0.67-6.74L17.1,43.68z M84.18,49.99c0,13.35-7.92,25.54-19.93,31.06l0.57-8.57c0.08-1.23-0.38-2.42-1.26-3.26
	L52.79,58.81c-0.31-0.3-0.43-0.75-0.31-1.16l1.17-3.94c0.13-0.44,0.51-0.77,0.96-0.82l10.5-1.26c1.18-0.16,2.24-0.8,2.92-1.78
	l0.34-0.5c0.24-0.35,0.65-0.54,1.1-0.49c0.15,0.02,0.3,0.03,0.46,0.03c2.15,0,3.97-1.68,4.13-3.83l0.15-1.91
	c0.14-1.77-0.86-3.43-2.48-4.13l-3.2-1.4c-1.59-0.69-3.4-0.34-4.6,0.87l-1.85,1.84c-0.21,0.22-0.5,0.33-0.81,0.34c0,0,0,0,0,0
	c-0.31,0-0.6-0.12-0.82-0.34l-1.39-1.4c-0.41-0.41-0.45-1.07-0.09-1.53l4.16-5.33c0.05,0.02,0.11,0.03,0.17,0.05v2.63
	c0,0.83,0.67,1.5,1.5,1.5s1.5-0.67,1.5-1.5V32.1c1.26-0.44,2.28-1.42,2.77-2.67l2.1-0.24c1.44-0.17,2.67-1.07,3.28-2.39l0.2-0.44
	C80.73,32.68,84.18,41.18,84.18,49.99z M66.41,27.92C66.41,27.92,66.41,27.93,66.41,27.92c-0.08,0.82-0.78,1.45-1.6,1.45
	c-0.39,0-0.76-0.14-1.05-0.4c-0.35-0.31-0.55-0.74-0.55-1.2c0-0.89,0.72-1.61,1.6-1.61c0.89,0,1.61,0.72,1.61,1.61l0.01,0
	C66.42,27.82,66.41,27.87,66.41,27.92z M72.37,24.17l-0.63,1.37c-0.17,0.37-0.52,0.62-0.91,0.67l-1.64,0.19
	c-0.59-1.87-2.32-3.24-4.38-3.24c-2.54,0-4.6,2.07-4.6,4.61c0,0.83,0.25,1.62,0.66,2.32l-4.25,5.44c-1.3,1.65-1.16,4.01,0.32,5.5
	l1.39,1.4c0.79,0.79,1.83,1.22,2.94,1.22c0,0,0.01,0,0.01,0c1.11,0,2.15-0.44,2.92-1.22l1.85-1.84c0.33-0.34,0.83-0.43,1.27-0.24
	l3.21,1.4c0.45,0.2,0.73,0.66,0.69,1.15l-0.15,1.91c-0.05,0.61-0.54,1.07-1.14,1.07c-0.06,0-0.11-0.01-0.14-0.01
	c-1.54-0.18-3.03,0.51-3.9,1.79l-0.33,0.48c-0.2,0.28-0.5,0.47-0.83,0.51l-10.48,1.26c-1.64,0.2-3.01,1.36-3.47,2.95l-1.17,3.94
	c-0.44,1.48-0.02,3.08,1.1,4.16l10.76,10.41c0.24,0.23,0.38,0.58,0.35,0.91L61.16,82.3c-3.58,1.24-7.33,1.88-11.15,1.88
	c-7.09,0-13.82-2.12-19.57-6.16c3.17-3.41,6.04-6.54,7.45-8.08c0.82-0.9,1.32-2.07,1.38-3.29l0.34-6.04
	c0.15-2.76-1.79-5.15-4.53-5.55l-2.97-0.43c-1.13-0.16-1.97-1.15-1.97-2.28v-4.38c0-0.76,0.37-1.47,1-1.9l3.82-2.63
	c0.39-0.27,0.84-0.41,1.31-0.41h1.25c2.2,0,4.14-1.33,4.95-3.38c0.42-1.08,0.48-2.29,0.16-3.4l-2.81-9.72
	c-0.25-0.86-0.71-1.64-1.34-2.27l-4.45-4.46c4.9-2.6,10.38-3.98,15.99-3.98C58.25,15.82,66.15,18.79,72.37,24.17z M31.35,21.37
	l4.99,5.01c0.27,0.27,0.48,0.62,0.58,0.99l2.81,9.71c0.14,0.49,0.12,1.01-0.07,1.48c-0.35,0.89-1.19,1.47-2.15,1.47h-1.25
	c-1.08,0-2.12,0.32-3.01,0.94l-3.82,2.63c-1.44,0.99-2.3,2.63-2.3,4.37v4.38c0,2.62,1.95,4.87,4.54,5.25l2.97,0.43
	c1.19,0.17,2.04,1.21,1.97,2.41l-0.34,6.04c-0.03,0.53-0.24,1.04-0.6,1.43c-1.44,1.57-4.4,4.79-7.63,8.27
	c-6.34-5.3-10.48-12.59-11.77-20.75l2.06-1.35c1.54-1.01,2.57-2.64,2.81-4.47l0.32-2.35c0.32-2.35-0.69-4.66-2.62-6.04l-1.55-1.1
	C19.61,32.39,24.55,25.79,31.35,21.37z"/><path d="M66.5 55.87c-2.54 0-4.61 2.07-4.61 4.61 0 2.01 1.3 3.71 3.11 4.33v2.64c0 .83.67 1.5 1.5 1.5s1.5-.67 1.5-1.5V64.8c1.8-.63 3.11-2.32 3.11-4.33C71.11 57.93 69.04 55.87 66.5 55.87zM66.5 62.08c-.89 0-1.61-.72-1.61-1.61 0-.89.72-1.61 1.61-1.61s1.61.72 1.61 1.61C68.11 61.36 67.39 62.08 66.5 62.08zM30.34 37.14v2.64c0 .83.67 1.5 1.5 1.5s1.5-.67 1.5-1.5v-2.64c1.8-.63 3.11-2.32 3.11-4.33 0-2.54-2.07-4.61-4.61-4.61s-4.61 2.07-4.61 4.61C27.23 34.82 28.54 36.51 30.34 37.14zM31.84 31.2c.89 0 1.61.72 1.61 1.61 0 .89-.72 1.61-1.61 1.61s-1.61-.72-1.61-1.61C30.23 31.92 30.95 31.2 31.84 31.2z"/></svg>