<svg xmlns="http://www.w3.org/2000/svg" enable-background="new 0 0 100 100" viewBox="0 0 100 100" id="6211589">
  <path d="M48.1,55.23c0,7.4,6.02,13.42,13.42,13.42s13.42-6.02,13.42-13.42s-6.02-13.42-13.42-13.42S48.1,47.83,48.1,55.23z
	 M71.94,55.23c0,5.75-4.68,10.42-10.42,10.42S51.1,60.98,51.1,55.23s4.68-10.42,10.42-10.42S71.94,49.49,71.94,55.23z" fill="#ff4407" class="color000000 svgShape"></path>
  <path d="M56.64,53.92c-0.59-0.59-1.54-0.59-2.12,0c-0.59,0.59-0.59,1.54,0,2.12l4.13,4.13c0.28,0.28,0.66,0.44,1.06,0.44
	s0.78-0.16,1.06-0.44l7.75-7.75c0.59-0.59,0.59-1.54,0-2.12c-0.59-0.59-1.54-0.59-2.12,0l-6.69,6.69L56.64,53.92z" fill="#ff4407" class="color000000 svgShape"></path>
  <path d="M57.79,12.82H26.95c-3.53,0-6.41,2.88-6.41,6.41v61.54c0,3.53,2.88,6.41,6.41,6.41h30.84c3.53,0,6.41-2.88,6.41-6.41v-7.8
	c8.66-1.31,15.26-8.83,15.26-17.73c0-6.59-3.6-12.64-9.4-15.79c-1.84-1-3.82-1.64-5.86-1.94V19.23
	C64.2,15.7,61.32,12.82,57.79,12.82z M48.54,15.82v1.85c0,0.11-0.09,0.23-0.23,0.23H36.43c-0.14,0-0.23-0.12-0.23-0.23v-1.85H48.54z
	 M61.2,80.77c0,1.88-1.53,3.41-3.41,3.41H26.95c-1.88,0-3.41-1.53-3.41-3.41V19.23c0-1.88,1.53-3.41,3.41-3.41h6.25v1.86
	c0,1.78,1.45,3.23,3.23,3.23h11.88c1.78,0,3.23-1.45,3.23-3.23v-1.86h6.25c1.88,0,3.41,1.53,3.41,3.41v18.06
	c-0.3,0.01-0.6,0.04-0.9,0.06c-0.27,0.02-0.53,0.02-0.79,0.05c-0.37,0.04-0.74,0.11-1.11,0.18c-0.24,0.04-0.48,0.07-0.72,0.12
	c-0.41,0.09-0.81,0.21-1.21,0.32c-0.07,0.02-0.14,0.03-0.21,0.06v-7.84c0-0.83-0.67-1.5-1.5-1.5h-25c-0.83,0-1.5,0.67-1.5,1.5v25
	c0,0.83,0.67,1.5,1.5,1.5h8.94h4.92c0.07,0.87,0.22,1.73,0.42,2.57h-10.7c-0.83,0-1.5,0.67-1.5,1.5s0.67,1.5,1.5,1.5h11.69
	c0.21,0.5,0.45,0.99,0.71,1.48c0.12,0.21,0.26,0.42,0.38,0.63H28.95c-0.83,0-1.5,0.67-1.5,1.5s0.67,1.5,1.5,1.5h19.44
	c0.27,0.3,0.54,0.6,0.83,0.88c0.16,0.15,0.33,0.28,0.5,0.42c0.32,0.28,0.63,0.56,0.97,0.82c0.21,0.16,0.43,0.29,0.65,0.44
	c0.31,0.21,0.61,0.43,0.93,0.63c0.24,0.14,0.49,0.26,0.73,0.39c0.31,0.17,0.62,0.35,0.95,0.5c0.26,0.12,0.53,0.22,0.79,0.32
	c0.32,0.13,0.64,0.27,0.97,0.39c0.28,0.09,0.56,0.16,0.84,0.24c0.33,0.1,0.66,0.2,1,0.28c0.29,0.07,0.58,0.11,0.87,0.16
	c0.34,0.06,0.67,0.13,1.02,0.17c0.3,0.03,0.6,0.04,0.9,0.06c0.29,0.02,0.58,0.06,0.87,0.06V80.77z M31.27,53.74v-22h5.94v4.74
	c0,0.83,0.67,1.5,1.5,1.5h7.12c0.83,0,1.5-0.67,1.5-1.5v-4.74h5.94v7.55c-0.15,0.08-0.28,0.17-0.43,0.25
	c-0.25,0.14-0.49,0.28-0.72,0.42c-0.29,0.18-0.56,0.36-0.84,0.55c-0.23,0.16-0.45,0.32-0.67,0.49c-0.27,0.2-0.52,0.42-0.78,0.64
	c-0.13,0.12-0.28,0.22-0.41,0.34c-0.07,0.07-0.13,0.14-0.2,0.21c-0.25,0.23-0.48,0.48-0.71,0.72c-0.19,0.2-0.37,0.39-0.55,0.59
	c-0.23,0.26-0.44,0.53-0.65,0.81c-0.16,0.21-0.32,0.41-0.48,0.62c-0.21,0.3-0.39,0.6-0.58,0.91c-0.13,0.21-0.27,0.41-0.39,0.63
	c-0.19,0.34-0.35,0.69-0.52,1.04h-6.63c-0.83,0-1.5,0.67-1.5,1.5v4.73H31.27z M44.33,31.74v3.23h-4.12v-3.23H44.33z M40.21,50.51
	h3.99c-0.02,0.09-0.04,0.18-0.06,0.28c-0.07,0.26-0.13,0.51-0.18,0.77c-0.03,0.12-0.05,0.24-0.08,0.36
	c-0.02,0.12-0.04,0.24-0.07,0.36c-0.06,0.38-0.11,0.77-0.15,1.15c-0.01,0.1-0.03,0.2-0.04,0.3h-3.42V50.51z M76.46,55.24
	c0,7.8-6.09,14.35-13.87,14.9c-0.35,0.03-0.7,0.04-1.07,0.04c-4.38,0-8.51-1.91-11.35-5.24c-0.69-0.8-1.29-1.66-1.78-2.58
	c-0.37-0.68-0.67-1.35-0.93-2.07c-0.59-1.6-0.89-3.3-0.89-5.05c0-0.38,0.01-0.76,0.04-1.14c0.09-1.14,0.3-2.26,0.65-3.36
	c0,0,0,0,0,0c0.42-1.35,1.05-2.61,1.82-3.77c1.54-2.32,3.71-4.2,6.3-5.37c0.44-0.2,0.89-0.37,1.34-0.52
	c0.07-0.02,0.15-0.05,0.22-0.07c0.45-0.14,0.9-0.27,1.36-0.37c0.05-0.01,0.11-0.02,0.16-0.03c1-0.21,2.02-0.32,3.05-0.32
	c0.36,0,0.71,0.01,1.07,0.04c2.13,0.15,4.16,0.74,6.04,1.76C73.46,44.71,76.46,49.75,76.46,55.24z" fill="#ff4407" class="color000000 svgShape"></path>
  <path d="M41.86 73.61c-2.64 0-4.8 2.15-4.8 4.8 0 2.64 2.15 4.8 4.8 4.8 2.64 0 4.8-2.15 4.8-4.8C46.66 75.76 44.51 73.61 41.86 73.61zM41.86 80.2c-.99 0-1.8-.81-1.8-1.8s.81-1.8 1.8-1.8c.99 0 1.8.81 1.8 1.8S42.85 80.2 41.86 80.2zM38.57 44.24h7.27c.83 0 1.5-.67 1.5-1.5s-.67-1.5-1.5-1.5h-7.27c-.83 0-1.5.67-1.5 1.5S37.74 44.24 38.57 44.24z" fill="#ff4407" class="color000000 svgShape"></path>
</svg>
