<svg xmlns="http://www.w3.org/2000/svg" enable-background="new 0 0 100 100" viewBox="0 0 100 100"><path d="M82.74,18.6H17.26c-2.45,0-4.44,1.99-4.44,4.44v37.94v5.32c0,2.45,1.99,4.44,4.44,4.44h20.38v3.12h-3.33
	c-1.65,0-2.99,1.34-2.99,2.99v2.59c0,0.83,0.67,1.5,1.5,1.5h34.36c0.83,0,1.5-0.67,1.5-1.5v-2.59c0-1.65-1.34-2.99-2.99-2.99h-3.33
	v-3.12h20.38c2.45,0,4.44-1.99,4.44-4.44v-5.32V23.04C87.18,20.59,85.19,18.6,82.74,18.6z M17.26,21.6h65.48
	c0.79,0,1.44,0.65,1.44,1.44v36.44H15.82V23.04C15.82,22.25,16.47,21.6,17.26,21.6z M50,65.42c-0.17,0-0.31-0.14-0.31-0.31
	S49.83,64.8,50,64.8s0.31,0.14,0.31,0.31S50.17,65.42,50,65.42z M15.82,66.3v-3.82h33.61c-1.21,0.26-2.12,1.34-2.12,2.63
	c0,1.29,0.91,2.36,2.12,2.63H39.14c-0.01,0-0.01,0-0.01,0H17.26C16.47,67.74,15.82,67.09,15.82,66.3z M65.68,77.93H34.32l0-1.08
	l4.82,0c0.01,0,0.01,0,0.02,0h21.71c0.03,0,0.06-0.01,0.09-0.01l4.73,0V77.93z M59.36,73.86H40.64v-3.12h18.71V73.86z M84.18,66.3
	c0,0.79-0.65,1.44-1.44,1.44H60.87c0,0-0.01,0-0.01,0H50.58c1.21-0.27,2.12-1.34,2.12-2.63c0-1.29-0.91-2.37-2.12-2.63h33.61V66.3z"/><path d="M30.18,48.38c0.49,0,0.95-0.24,1.23-0.65c0.74-1.07,7.19-10.53,7.19-14.71c0-4.65-3.78-8.43-8.43-8.43s-8.43,3.78-8.43,8.43
	c0,4.17,6.46,13.64,7.19,14.71C29.22,48.14,29.68,48.38,30.18,48.38z M30.18,27.6c2.99,0,5.43,2.43,5.43,5.43
	c0,2.08-2.96,7.33-5.43,11.15c-2.47-3.82-5.43-9.07-5.43-11.15C24.75,30.03,27.18,27.6,30.18,27.6z"/><path d="M34.77 33.03c0-2.54-2.06-4.6-4.6-4.6-2.54 0-4.6 2.06-4.6 4.6s2.06 4.6 4.6 4.6C32.71 37.62 34.77 35.56 34.77 33.03zM28.58 33.03c0-.88.72-1.6 1.6-1.6.88 0 1.6.72 1.6 1.6s-.72 1.6-1.6 1.6C29.29 34.62 28.58 33.91 28.58 33.03zM69.49 48.38c.49 0 .95-.24 1.23-.65.74-1.07 7.19-10.53 7.19-14.71 0-4.65-3.78-8.43-8.43-8.43s-8.43 3.78-8.43 8.43c0 4.17 6.46 13.64 7.19 14.71C68.53 48.14 68.99 48.38 69.49 48.38zM69.49 27.6c2.99 0 5.43 2.43 5.43 5.43 0 2.08-2.96 7.33-5.43 11.15-2.47-3.82-5.43-9.07-5.43-11.15C64.06 30.03 66.49 27.6 69.49 27.6z"/><path d="M74.09 33.03c0-2.54-2.06-4.6-4.6-4.6s-4.6 2.06-4.6 4.6 2.06 4.6 4.6 4.6S74.09 35.56 74.09 33.03zM67.89 33.03c0-.88.72-1.6 1.6-1.6s1.6.72 1.6 1.6-.72 1.6-1.6 1.6S67.89 33.91 67.89 33.03zM20.48 55.63h5.1v.05c0 .83.67 1.5 1.5 1.5h6.2c.83 0 1.5-.67 1.5-1.5v-.05h10.6c.05.78.7 1.4 1.49 1.4h6.2c.79 0 1.44-.62 1.49-1.4h10.34v.05c0 .83.67 1.5 1.5 1.5h6.2c.83 0 1.5-.67 1.5-1.5v-.05h5.01c.83 0 1.5-.67 1.5-1.5s-.67-1.5-1.5-1.5h-5.01v-.04c0-.83-.67-1.5-1.5-1.5h-6.2c-.83 0-1.5.67-1.5 1.5v.04H54.56v-.2c0-.83-.67-1.5-1.5-1.5h-6.2c-.83 0-1.5.67-1.5 1.5v.2H34.77v-.04c0-.83-.67-1.5-1.5-1.5h-6.2c-.83 0-1.5.67-1.5 1.5v.04h-5.1c-.83 0-1.5.67-1.5 1.5S19.65 55.63 20.48 55.63zM67.89 54.08h3.2v.09h-3.2V54.08zM48.36 53.93h3.2v.09h-3.2V53.93zM28.58 54.08h3.2v.09h-3.2V54.08z"/></svg>