<svg xmlns="http://www.w3.org/2000/svg" enable-background="new 0 0 100 100" viewBox="0 0 100 100"><path d="M50,35.13c3.01,0,5.36-1.81,5.36-4.11c0-0.83-0.67-1.5-1.5-1.5s-1.5,0.67-1.5,1.5c0,0.39-0.9,1.11-2.36,1.11
	s-2.36-0.72-2.36-1.11c0-0.83-0.67-1.5-1.5-1.5s-1.5,0.67-1.5,1.5C44.64,33.32,46.99,35.13,50,35.13z"/><path d="M14.32 39.17h4.16v1.48c0 2.2 1.79 3.98 3.98 3.98h.2c2.2 0 3.98-1.79 3.98-3.98v-1.48h3.93v1.48c0 2.2 1.79 3.98 3.98 3.98h.2c2.2 0 3.98-1.79 3.98-3.98v-1.48h2.48c1.8 3.11 5.13 5.08 8.78 5.08 3.66 0 7-1.98 8.78-5.08h2.48v1.48c0 2.2 1.79 3.98 3.98 3.98h.2c2.2 0 3.98-1.79 3.98-3.98v-1.48h3.93v1.48c0 2.2 1.79 3.98 3.98 3.98h.2c2.2 0 3.98-1.79 3.98-3.98v-1.48h4.16c.83 0 1.5-.67 1.5-1.5s-.67-1.5-1.5-1.5h-5.66-5.16-6.93-5.16-2.79c.15-.69.23-1.4.23-2.12 0-1.5-.34-2.96-.96-4.3h3.6c.83 0 1.5-.67 1.5-1.5s-.67-1.5-1.5-1.5h-5.74c-1.53-1.5-3.49-2.46-5.6-2.78v-9.65c0-.83-.67-1.5-1.5-1.5s-1.5.67-1.5 1.5v9.65c-2.11.32-4.07 1.28-5.59 2.78h-5.74c-.83 0-1.5.67-1.5 1.5s.67 1.5 1.5 1.5h3.6c-.63 1.34-.96 2.8-.96 4.3 0 .72.08 1.43.23 2.12h-2.79-5.16-6.93-5.16-5.66c-.83 0-1.5.67-1.5 1.5S13.5 39.17 14.32 39.17zM78.52 39.17v1.48c0 .54-.44.98-.98.98h-.2c-.54 0-.98-.44-.98-.98v-1.48H78.52zM66.43 39.17v1.48c0 .54-.44.98-.98.98h-.2c-.54 0-.98-.44-.98-.98v-1.48H66.43zM50 26.85c2.05 0 4 .87 5.35 2.4 1.19 1.32 1.85 3.03 1.85 4.8 0 1.07-.22 2.07-.67 3-1.15 2.55-3.71 4.2-6.53 4.2s-5.38-1.65-6.54-4.23c-.44-.9-.66-1.9-.66-2.97 0-1.77.66-3.47 1.85-4.81C46 27.72 47.95 26.85 50 26.85zM35.74 39.17v1.48c0 .54-.44.98-.98.98h-.2c-.54 0-.98-.44-.98-.98v-1.48H35.74zM23.64 39.17v1.48c0 .54-.44.98-.98.98h-.2c-.54 0-.98-.44-.98-.98v-1.48H23.64zM14.32 87.18h6.65 58.04 6.65c.83 0 1.5-.67 1.5-1.5s-.67-1.5-1.5-1.5h-5.22c-.5-7.67-3.81-14.75-9.41-20.05-5.68-5.43-13.15-8.41-21.03-8.42 0 0 0 0 0 0-.01 0-.01 0-.02 0-.99 0-1.97.05-2.94.14-6.31.6-12.23 3.13-17.03 7.29-.37.32-.73.65-1.09.99 0 0 0 0 0 0-5.6 5.31-8.9 12.38-9.4 20.05h-5.22c-.83 0-1.5.67-1.5 1.5S13.5 87.18 14.32 87.18zM32.93 64.64c.54-.43 1.1-.83 1.66-1.22.09-.06.19-.13.28-.19.56-.37 1.13-.72 1.71-1.04.1-.06.2-.11.31-.17.6-.32 1.2-.63 1.82-.91.07-.03.14-.06.21-.09.63-.28 1.26-.53 1.91-.76.03-.01.07-.03.1-.04.65-.23 1.31-.42 1.98-.6.1-.03.21-.06.31-.08.32-.08.66-.14.98-.21-1.81 1.58-3.84 3.76-5.68 6.68-2.04-.36-3.95-.81-5.64-1.35C32.9 64.66 32.91 64.65 32.93 64.64zM57.09 59.63c.67.18 1.33.37 1.98.6.04.01.08.03.11.04.64.23 1.27.48 1.89.75.07.03.15.06.22.1.61.28 1.21.58 1.8.9.11.06.21.12.32.18.58.32 1.14.67 1.7 1.03.1.07.2.13.3.2.56.38 1.12.78 1.65 1.21.01.01.03.02.04.04-1.69.54-3.6.99-5.64 1.35-1.84-2.92-3.87-5.1-5.68-6.68.33.07.66.13.98.21C56.88 59.57 56.99 59.6 57.09 59.63zM58.14 66.51c-2.14.25-4.36.39-6.64.44v-7.13C53.24 61.02 55.78 63.14 58.14 66.51zM48.5 59.8v7.16c-2.3-.05-4.54-.19-6.7-.45C44.17 63.1 46.75 60.98 48.5 59.8zM51.5 69.95c2.89-.06 5.7-.27 8.37-.65 2.04 3.73 3.68 8.6 4.13 14.87H51.5V69.95zM40.08 69.3c2.69.38 5.51.6 8.42.66v14.22H36.01C36.46 77.9 38.07 73.02 40.08 69.3zM77.45 84.18H67.01c-.43-6.36-1.97-11.42-3.97-15.39 2.44-.48 4.69-1.09 6.61-1.82C74.24 71.62 76.98 77.65 77.45 84.18zM30.35 66.97c1.93.72 4.17 1.34 6.61 1.82-2 3.97-3.54 9.03-3.97 15.39H22.55C23.02 77.65 25.76 71.62 30.35 66.97z"/></svg>