<svg xmlns="http://www.w3.org/2000/svg" enable-background="new 0 0 100 100" viewBox="0 0 100 100" id="6211625">
  <path d="M60.01,47.6H34.33c-0.83,0-1.5,0.67-1.5,1.5v12.66c0,0.83,0.67,1.5,1.5,1.5h25.67c0.83,0,1.5-0.67,1.5-1.5V49.1
	C61.51,48.27,60.83,47.6,60.01,47.6z M58.51,60.25H35.83V50.6h22.67V60.25z" fill="#ff4407" class="color000000 svgShape"></path>
  <path d="M39.31 54.71h15.73c.83 0 1.5-.67 1.5-1.5s-.67-1.5-1.5-1.5H39.31c-.83 0-1.5.67-1.5 1.5S38.48 54.71 39.31 54.71zM53.41 56.14H40.93c-.83 0-1.5.67-1.5 1.5s.67 1.5 1.5 1.5h12.47c.83 0 1.5-.67 1.5-1.5S54.24 56.14 53.41 56.14zM36.34 35.42c0-.83-.67-1.5-1.5-1.5H22.55c-.83 0-1.5.67-1.5 1.5s.67 1.5 1.5 1.5h12.29C35.67 36.92 36.34 36.25 36.34 35.42zM22.55 32.76h12.29c.83 0 1.5-.67 1.5-1.5s-.67-1.5-1.5-1.5H22.55c-.83 0-1.5.67-1.5 1.5S21.72 32.76 22.55 32.76z" fill="#ff4407" class="color000000 svgShape"></path>
  <path d="M85.16,36.11V19.23c0-0.63-0.39-1.19-0.98-1.41l-13.41-4.91c-0.33-0.12-0.7-0.12-1.03,0l-13.4,4.91
	c-0.59,0.22-0.98,0.78-0.98,1.41v3.3H16.34c-0.83,0-1.5,0.67-1.5,1.5v61.66c0,0.83,0.67,1.5,1.5,1.5H78c0.83,0,1.5-0.67,1.5-1.5
	v-7.26c0.3-0.27,0.5-0.67,0.5-1.11s-0.19-0.84-0.5-1.11V73.6c0.3-0.27,0.5-0.67,0.5-1.11s-0.19-0.84-0.5-1.11V46.14
	c4.83-4.27,5.61-9.59,5.65-9.83C85.15,36.25,85.16,36.18,85.16,36.11z M51.46,25.53v7.13h-8.57v-7.13H51.46z M44.8,84.18v-8.72H55.2
	v8.72H44.8z M58.2,84.18V73.96c0-0.83-0.67-1.5-1.5-1.5H43.3c-0.83,0-1.5,0.67-1.5,1.5v10.22H17.84V25.52h22.04v8.63
	c0,0.83,0.67,1.5,1.5,1.5h11.57c0.83,0,1.5-0.67,1.5-1.5v-8.63h0.89v10.59c0,0.07,0,0.13,0.01,0.2c0.06,0.46,1.68,11.3,14.55,14.29
	c0.22,0.05,0.46,0.05,0.68,0c0.72-0.17,1.41-0.38,2.09-0.6c0.17-0.06,0.35-0.12,0.52-0.18c0.65-0.23,1.29-0.49,1.89-0.77
	c0.02-0.01,0.03-0.01,0.05-0.02c0.47-0.22,0.92-0.46,1.36-0.71v22.68H64.27c-0.83,0-1.5,0.67-1.5,1.5s0.67,1.5,1.5,1.5H76.5v1.81
	H64.27c-0.83,0-1.5,0.67-1.5,1.5s0.67,1.5,1.5,1.5H76.5v5.37H58.2z M82.16,35.99c-0.11,0.65-1.01,4.97-5.11,8.31
	c-1.85,1.52-4.14,2.63-6.8,3.3c-1.26-0.31-2.38-0.71-3.39-1.18c-7.06-3.25-8.36-9.56-8.51-10.42V24.02v-3.75l11.9-4.36l11.91,4.36
	V35.99z" fill="#ff4407" class="color000000 svgShape"></path>
  <path d="M59.41,20.69c-0.59,0.22-0.98,0.78-0.98,1.41v13c0,0.07,0,0.14,0.01,0.2c0.05,0.36,1.33,8.94,11.47,11.29
	c0.11,0.03,0.23,0.04,0.34,0.04s0.23-0.01,0.34-0.04c10.14-2.36,11.42-10.93,11.47-11.29c0.01-0.07,0.01-0.14,0.01-0.2v-13
	c0-0.63-0.39-1.19-0.98-1.41l-10.32-3.78c-0.33-0.12-0.7-0.12-1.03,0L59.41,20.69z M79.07,23.15v11.83
	c-0.14,0.77-1.46,6.73-8.82,8.61c-7.38-1.88-8.68-7.8-8.82-8.61V23.15l8.82-3.23L79.07,23.15z" fill="#ff4407" class="color000000 svgShape"></path>
  <path d="M67.9,35.61c0.29,0.29,0.68,0.44,1.06,0.44s0.77-0.15,1.06-0.44l5.24-5.24c0.59-0.59,0.59-1.54,0-2.12s-1.54-0.59-2.12,0
	l-4.18,4.18l-1.6-1.6c-0.59-0.59-1.54-0.59-2.12,0s-0.59,1.54,0,2.12L67.9,35.61z" fill="#ff4407" class="color000000 svgShape"></path>
</svg>
