<svg xmlns="http://www.w3.org/2000/svg" enable-background="new 0 0 100 100" viewBox="0 0 100 100"><path d="M33.4,35.33c0-3.05-2.48-5.54-5.54-5.54s-5.54,2.48-5.54,5.54c0,3.05,2.48,5.54,5.54,5.54S33.4,38.39,33.4,35.33z
	 M25.33,35.33c0-1.4,1.14-2.54,2.54-2.54s2.54,1.14,2.54,2.54c0,1.4-1.14,2.54-2.54,2.54S25.33,36.73,25.33,35.33z"/><path d="M14.32,81.97h10.97c0.01,0,0.02,0,0.03,0h5.08c0.01,0,0.02,0,0.03,0H41.4c0.83,0,1.5-0.67,1.5-1.5V70.5
	c4.66,3.08,10.05,4.7,15.7,4.7c3.44,0,6.83-0.62,10.08-1.83c11.06-4.17,18.5-14.93,18.5-26.76c0-7.91-3.32-15.52-9.1-20.89
	c-0.02-0.03-0.05-0.05-0.07-0.07c-0.01-0.01-0.02-0.02-0.03-0.03c-0.04-0.04-0.08-0.07-0.12-0.11c0,0,0,0,0,0
	c-5.28-4.82-12.11-7.48-19.25-7.48c-5.22,0-10.34,1.42-14.78,4.12c-2.92,1.76-5.53,4.08-7.65,6.76c-1.97-2.54-5.02-4.1-8.3-4.1
	c-5.8,0-10.53,4.73-10.53,10.53c0,4.11,5.03,12.41,7.72,16.55H14.32c-0.83,0-1.5,0.67-1.5,1.5v27.08
	C12.82,81.29,13.5,81.97,14.32,81.97z M28.91,78.97h-2.08v-1.44h2.08V78.97z M84.18,46.61c0,9.79-5.69,18.75-14.37,22.99l0.39-5.89
	c0.07-1.03-0.32-2.04-1.06-2.76l-8.17-7.9c-0.14-0.13-0.19-0.33-0.14-0.52l0.88-2.99c0.06-0.2,0.23-0.34,0.43-0.37l7.95-0.96
	c1.01-0.12,1.91-0.67,2.48-1.51l0.26-0.38c0.11-0.16,0.3-0.24,0.48-0.22c0.96,0.11,1.89-0.17,2.64-0.78
	c0.74-0.61,1.19-1.48,1.27-2.44l0.11-1.45c0.12-1.49-0.73-2.9-2.1-3.5l-2.43-1.06c-1.34-0.58-2.86-0.29-3.89,0.74L67.52,39
	c-0.13,0.13-0.29,0.15-0.37,0.15s-0.23-0.02-0.37-0.15l-1.06-1.06c-0.18-0.18-0.2-0.48-0.04-0.68l4.19-5.36
	c0.08-0.11,0.21-0.18,0.35-0.19l4.48-0.53c1.15-0.14,2.17-0.85,2.7-1.87C81.73,33.99,84.18,40.18,84.18,46.61z M75.11,27.13
	l-0.35,0.77c-0.07,0.16-0.23,0.28-0.41,0.3l-4.48,0.53c-0.93,0.11-1.79,0.59-2.36,1.33l-4.19,5.36c-1.09,1.39-0.97,3.39,0.28,4.65
	l1.06,1.06c0.66,0.67,1.55,1.03,2.49,1.03c0,0,0,0,0,0c0.94,0,1.82-0.37,2.49-1.03l1.39-1.39c0.15-0.15,0.38-0.19,0.57-0.11
	l2.43,1.06c0.2,0.09,0.33,0.29,0.31,0.51l-0.11,1.45c-0.01,0.19-0.12,0.3-0.19,0.36c-0.06,0.05-0.2,0.14-0.39,0.11
	c-1.31-0.15-2.56,0.43-3.3,1.51l-0.26,0.38c-0.08,0.12-0.21,0.2-0.36,0.22l-7.95,0.96c-1.39,0.17-2.55,1.15-2.95,2.49l-0.88,2.99
	c-0.37,1.26-0.02,2.61,0.93,3.52l8.17,7.9c0.11,0.11,0.17,0.25,0.16,0.41l-0.49,7.34c-2.63,0.88-5.35,1.35-8.12,1.35
	c-5.16,0-10.07-1.52-14.3-4.39c2.29-2.46,4.34-4.7,5.36-5.82c0.68-0.74,1.09-1.71,1.15-2.72l0.25-4.59
	c0.13-2.28-1.48-4.26-3.75-4.59l-2.25-0.33c-0.68-0.1-1.19-0.69-1.19-1.38v-3.32c0-0.46,0.22-0.89,0.6-1.15l2.9-2
	c0.23-0.16,0.51-0.25,0.79-0.25h0.95c1.82,0,3.43-1.1,4.09-2.8c0.35-0.9,0.39-1.89,0.13-2.81L51.2,28.7
	c-0.2-0.71-0.59-1.36-1.11-1.88l-3.03-3.04c3.56-1.8,7.51-2.75,11.54-2.75C64.67,21.03,70.49,23.2,75.11,27.13z M44.38,25.34
	l3.58,3.59c0.17,0.17,0.29,0.37,0.35,0.6l2.13,7.38c0.08,0.29,0.07,0.61-0.04,0.89c-0.21,0.54-0.72,0.89-1.3,0.89h-0.95
	c-0.89,0-1.76,0.27-2.49,0.77l-2.9,2c-1.19,0.82-1.9,2.17-1.9,3.62v3.32c0,2.16,1.61,4.03,3.75,4.34l2.25,0.33
	c0.72,0.1,1.23,0.73,1.19,1.45l-0.25,4.59c-0.02,0.33-0.14,0.62-0.36,0.86c-0.9,0.98-2.6,2.83-4.55,4.94V53.39
	c0-0.83-0.67-1.5-1.5-1.5h-7.85c-0.07-0.32-0.11-0.65-0.17-0.98l1.36-0.89c1.26-0.82,2.1-2.15,2.3-3.65l0.24-1.78
	c0.16-1.14-0.08-2.28-0.64-3.26c1.17-2.58,1.75-4.55,1.75-6c0-0.35-0.02-0.7-0.06-1.04c-0.01-0.11-0.03-0.22-0.04-0.32
	c-0.03-0.24-0.07-0.48-0.12-0.71c-0.02-0.12-0.05-0.24-0.08-0.35c-0.06-0.23-0.12-0.46-0.19-0.69c-0.03-0.1-0.06-0.21-0.1-0.31
	c-0.02-0.05-0.03-0.1-0.05-0.15C39.56,29.25,41.82,27.06,44.38,25.34z M26.82,54.89h1.04c0,0,0,0,0,0h1.04v1.45h-2.08V54.89z
	 M27.87,27.8c2.93,0,5.62,1.72,6.84,4.39c0.45,0.99,0.68,2.05,0.68,3.14c0,0.77-0.32,2.34-1.83,5.5c0,0,0,0,0,0
	c-0.34,0.7-0.73,1.45-1.14,2.23c-0.64,1.2-1.37,2.48-2.19,3.84c0,0,0,0,0,0c-0.89,1.47-1.73,2.79-2.38,3.78
	c-3.32-5.06-7.52-12.45-7.52-15.35C20.34,31.18,23.72,27.8,27.87,27.8z M15.82,54.89h8v2.95c0,0.83,0.67,1.5,1.5,1.5h5.08
	c0.83,0,1.5-0.67,1.5-1.5v-2.95h0.46h7.53v12.64v11.44h-8v-2.94c0-0.83-0.67-1.5-1.5-1.5h-5.08c-0.83,0-1.5,0.67-1.5,1.5v2.94h-8
	V54.89z"/><path d="M33.5,71.46c0.83,0,1.5-0.67,1.5-1.5V64.4c0-0.83-0.67-1.5-1.5-1.5H22.23c-0.83,0-1.5,0.67-1.5,1.5v5.56
	c0,0.83,0.67,1.5,1.5,1.5H33.5z M23.73,65.9H32v2.56h-8.28V65.9z"/></svg>