<?xml version="1.0" encoding="UTF-8"?><svg id="Layer_1" xmlns="http://www.w3.org/2000/svg" viewBox="0 0 1409.09 206.71"><defs><style>.cls-1{fill:#fff;stroke-width:0px;}</style></defs><path class="cls-1" d="m272.89,64.4c0-4.42,1.1-8.46,3.32-12.13,2.21-3.67,5.15-6.6,8.81-8.81,3.66-2.21,7.71-3.32,12.13-3.32h76.96c4.42,0,8.49,1.11,12.22,3.32,3.72,2.21,6.69,5.15,8.9,8.81,2.21,3.66,3.31,7.71,3.31,12.13v101.39h-23.21v-42.23h-79.4v42.23h-23.04v-101.39Zm102.44,36.12v-35.08c0-.58-.24-1.07-.7-1.48-.47-.41-.99-.61-1.57-.61h-75.04c-.58,0-1.08.2-1.48.61s-.61.9-.61,1.48v35.08h79.4Z"/><path class="cls-1" d="m418.77,165.79V40.14h101.21c4.42,0,8.49,1.11,12.22,3.32,3.72,2.21,6.69,5.15,8.9,8.81,2.21,3.66,3.31,7.71,3.31,12.13v77.13c0,4.42-1.11,8.46-3.31,12.13-2.21,3.67-5.18,6.6-8.9,8.81-3.72,2.21-7.79,3.32-12.22,3.32h-101.21Zm24.95-23.21h75.21c.58,0,1.1-.2,1.57-.61.46-.41.7-.9.7-1.48v-75.04c0-.58-.24-1.07-.7-1.48-.47-.41-.99-.61-1.57-.61h-75.21c-.58,0-1.08.2-1.48.61-.41.41-.61.9-.61,1.48v75.04c0,.58.2,1.08.61,1.48.41.41.9.61,1.48.61Z"/><path class="cls-1" d="m575.74,162.47c-3.66-2.21-6.6-5.15-8.81-8.81-2.21-3.66-3.31-7.7-3.31-12.13V40.14h23.03v100.34c0,.58.2,1.08.61,1.48.41.41.9.61,1.48.61h75.04c.58,0,1.1-.2,1.57-.61.46-.41.7-.9.7-1.48V40.14h23.21v101.39c0,4.42-1.11,8.46-3.32,12.13-2.21,3.67-5.15,6.6-8.81,8.81-3.67,2.21-7.71,3.32-12.13,3.32h-77.13c-4.42,0-8.46-1.1-12.13-3.32Z"/><path class="cls-1" d="m708.8,64.4c0-4.42,1.1-8.46,3.32-12.13,2.21-3.67,5.15-6.6,8.81-8.81,3.66-2.21,7.71-3.32,12.13-3.32h76.96c4.42,0,8.49,1.11,12.22,3.32,3.72,2.21,6.69,5.15,8.9,8.81,2.21,3.66,3.31,7.71,3.31,12.13v101.39h-23.21v-42.23h-79.4v42.23h-23.04v-101.39Zm102.44,36.12v-35.08c0-.58-.24-1.07-.7-1.48-.47-.41-.99-.61-1.57-.61h-75.04c-.58,0-1.08.2-1.48.61s-.61.9-.61,1.48v35.08h79.4Z"/><path class="cls-1" d="m854.34,165.79V40.14h25.3l77.13,91.79V40.14h23.21v125.64h-25.3l-77.31-91.97v91.97h-23.04Z"/><path class="cls-1" d="m999.87,64.4c0-4.42,1.1-8.46,3.32-12.13,2.21-3.67,5.15-6.6,8.81-8.81,3.66-2.21,7.71-3.32,12.13-3.32h76.96c4.42,0,8.49,1.11,12.22,3.32,3.72,2.21,6.69,5.15,8.9,8.81,2.21,3.66,3.31,7.71,3.31,12.13v101.39h-23.21v-42.23h-79.4v42.23h-23.04v-101.39Zm102.44,36.12v-35.08c0-.58-.24-1.07-.7-1.48-.47-.41-.99-.61-1.57-.61h-75.04c-.58,0-1.08.2-1.48.61s-.61.9-.61,1.48v35.08h79.4Z"/><path class="cls-1" d="m1145.41,165.79V40.32h101.21c4.42,0,8.49,1.11,12.22,3.32,3.72,2.21,6.69,5.15,8.9,8.81,2.21,3.67,3.31,7.71,3.31,12.13v33.85c0,4.42-1.11,8.49-3.31,12.22-2.21,3.72-5.18,6.66-8.9,8.81-3.72,2.15-7.79,3.23-12.22,3.23l-78.18.18v42.93h-23.04Zm25.13-66.31h75.04c.58,0,1.1-.17,1.57-.52.46-.35.7-.81.7-1.4v-32.11c0-.58-.23-1.07-.7-1.48-.47-.41-.99-.61-1.57-.61h-75.04c-.58,0-1.08.2-1.48.61-.41.41-.61.9-.61,1.48v32.11c0,.58.2,1.05.61,1.4.41.35.9.52,1.48.52Z"/><path class="cls-1" d="m1283.44,165.79V40.32h101.21c4.42,0,8.49,1.11,12.22,3.32,3.72,2.21,6.69,5.15,8.9,8.81,2.21,3.67,3.31,7.71,3.31,12.13v33.85c0,4.42-1.11,8.49-3.31,12.22-2.21,3.72-5.18,6.66-8.9,8.81-3.72,2.15-7.79,3.23-12.22,3.23l-78.18.18v42.93h-23.04Zm25.13-66.31h75.04c.58,0,1.1-.17,1.57-.52.46-.35.7-.81.7-1.4v-32.11c0-.58-.23-1.07-.7-1.48-.47-.41-.99-.61-1.57-.61h-75.04c-.58,0-1.08.2-1.48.61-.41.41-.61.9-.61,1.48v32.11c0,.58.2,1.05.61,1.4.41.35.9.52,1.48.52Z"/><path class="cls-1" d="m104.01,97.88c-19.04-58.72-51.28-46.26-65.41-2.24l-1.64,6.05c-2.11,8.18-5.54,13.62-11.7,13.62H7.01C3.14,115.32,0,115.03,0,109.56v-2.07C0,102.01,3.14,101.72,7.01,101.72h9.18c4.86-.07,8.18-3.72,10.07-8.28L48.92,23.55c10.72-30.91,33.31-31.88,44.19,0l28.52,85.28c15.88,50.64,50.37,48.74,65.41,2.24l1.64-6.05c2.11-8.18,5.54-13.62,11.7-13.62h18.26c3.87,0,7.01.29,7.01,5.76v2.07c0,5.47-3.14,5.76-7.01,5.76h-9.09c-5.47,0-8.78,4.34-10,7.83l-22.82,70.35c-10.72,30.91-33.31,31.88-44.19,0l-28.52-85.28Z"/></svg>