<?xml version="1.0" encoding="UTF-8"?><svg id="Layer_1" xmlns="http://www.w3.org/2000/svg" viewBox="0 0 403.22 369.4"><defs><style>.cls-1{fill:#fff;stroke-width:0px;}</style></defs><path class="cls-1" d="m185.87,174.91c-34.02-104.93-91.63-82.66-116.89-4l-2.93,10.82c-3.77,14.62-9.9,24.35-20.91,24.35H12.52c-6.91,0-12.52-.52-12.52-10.29v-3.7c0-9.78,5.6-10.29,12.52-10.29h16.4c8.69-.12,14.62-6.64,17.99-14.8l40.51-124.91c19.16-55.24,59.52-56.98,78.96,0l50.96,152.4c28.37,90.5,90.01,87.1,116.89,4l2.93-10.82c3.77-14.62,9.9-24.35,20.91-24.35h32.63c6.91,0,12.52.52,12.52,10.29v3.7c0,9.78-5.6,10.29-12.52,10.29h-16.25c-9.77,0-15.7,7.76-17.88,13.98l-40.77,125.72c-19.16,55.24-59.52,56.98-78.96,0l-50.96-152.4Z"/></svg>